<svg width="15" height="15" viewBox="0 0 15 15" fill="none" xmlns="http://www.w3.org/2000/svg">
<g clip-path="url(#clip0_5152_1899)">
<path d="M7.73981 9.3817L6.28613 14.8413C6.23666 15.0266 6.01237 15.0587 5.94278 14.8904L5.38068 13.5311C5.33472 13.42 5.20875 13.3869 5.11425 13.4612L3.98227 14.3515C3.83836 14.4646 3.65791 14.3243 3.70765 14.1379L5.21135 8.6001L7.73981 9.3817Z" fill="#DC4955"/>
<path d="M9.57248 8.21191L11.6438 13.9447C11.7092 14.125 11.5438 14.2804 11.3907 14.1826L10.1534 13.3928C10.0523 13.3282 9.93022 13.3737 9.89529 13.4889L9.47674 14.8699C9.42354 15.0454 9.19552 15.0344 9.12978 14.8531L7.06641 9.13618L9.57248 8.21191Z" fill="#DC4955"/>
<path d="M7.73813 9.38146L7.49031 10.3119L7.46819 10.3958L6.53444 10.7494C6.43164 10.7883 6.32261 10.8082 6.21269 10.8081C5.9388 10.8081 5.68219 10.6866 5.50889 10.4743L4.90234 9.73199L5.20955 8.6001L7.0813 9.17847L7.73813 9.38146Z" fill="#DC4955"/>
<path d="M10.1119 9.70525L9.48349 10.4742C9.3102 10.6866 9.05358 10.8081 8.7797 10.8081C8.66942 10.8081 8.56126 10.7884 8.45794 10.7493L7.52056 10.3942L7.49056 10.3118L7.08155 9.17839L7.06641 9.13627L9.57226 8.21191L10.1119 9.70525Z" fill="#DC4955"/>
<path d="M8.45499 10.7476C8.50822 10.7678 8.56299 10.7841 8.61907 10.7939C8.95155 10.8521 9.27779 10.7281 9.48496 10.4742L10.1133 9.70525L9.57373 8.21191L7.69929 8.90335L7.69926 8.90329L7.06787 9.13627L7.08302 9.17839L5.77026 8.77274V8.77271L5.21128 8.60002L3.70764 14.1377C3.65796 14.324 3.83822 14.4643 3.98213 14.3513C4.09817 14.2601 4.2139 14.1689 4.32994 14.078L5.2959 10.52C5.3222 10.423 5.44708 10.3964 5.51061 10.4742C5.68391 10.6866 5.94052 10.8081 6.21441 10.8081C6.32469 10.8081 6.43285 10.7884 6.53616 10.7493L7.46991 10.3957L7.49203 10.3118L7.52184 10.3942L9.13109 14.853C9.19684 15.0345 9.42497 15.0454 9.4783 14.87L9.64917 14.3065L8.38845 10.8131C8.37361 10.7718 8.41396 10.7321 8.45499 10.7476Z" fill="#D82F3C"/>
<path d="M12.4818 6.62128L11.5966 7.34667C11.5396 7.39342 11.5016 7.45937 11.4897 7.53215L11.305 8.66265C11.2948 8.72528 11.2652 8.78311 11.2203 8.82799C11.1754 8.87287 11.1176 8.90253 11.055 8.91278L9.92698 9.09762C9.85409 9.10956 9.78808 9.14773 9.74135 9.20494L9.01753 10.091C8.97734 10.1402 8.9227 10.1755 8.86134 10.1919C8.79998 10.2084 8.73501 10.2051 8.6756 10.1826L7.60676 9.77791C7.53763 9.75173 7.46132 9.75173 7.39219 9.77791L6.32335 10.1826C6.26394 10.2051 6.19896 10.2084 6.1376 10.1919C6.07624 10.1755 6.0216 10.1401 5.98142 10.0909L5.25759 9.20491C5.21087 9.1477 5.14486 9.10953 5.07196 9.09759L3.94395 8.91275C3.88133 8.90249 3.82352 8.87283 3.77866 8.82795C3.7338 8.78307 3.70417 8.72524 3.69394 8.66262L3.50931 7.53212C3.49743 7.45933 3.45939 7.39338 3.40233 7.34664L2.51718 6.62125C2.46815 6.58107 2.43296 6.52652 2.41656 6.46529C2.40016 6.40406 2.40339 6.33922 2.42577 6.27992L2.83033 5.20811C2.85635 5.13915 2.85635 5.06307 2.83033 4.99412L2.42577 3.92231C2.40339 3.863 2.40016 3.79817 2.41656 3.73694C2.43296 3.67571 2.46815 3.62116 2.51718 3.58098L3.40233 2.85558C3.45937 2.80883 3.49741 2.74289 3.50931 2.6701L3.69394 1.53961C3.70416 1.47698 3.73379 1.41915 3.77865 1.37427C3.82351 1.32939 3.88133 1.29973 3.94395 1.28947L5.07196 1.10463C5.14486 1.09269 5.21087 1.05453 5.25759 0.997321L5.98142 0.111288C6.02161 0.0620929 6.07625 0.0267757 6.13761 0.0103295C6.19896 -0.00611674 6.26394 -0.00285983 6.32335 0.0196397L7.39219 0.424346C7.46132 0.450522 7.53763 0.450522 7.60676 0.424346L8.67566 0.0197003C8.73507 -0.00278991 8.80004 -0.006042 8.8614 0.0104037C8.92276 0.0268493 8.9774 0.062161 9.01759 0.111348L9.74141 0.997382C9.78814 1.05459 9.85415 1.09275 9.92704 1.10469L11.0551 1.28953C11.1177 1.2998 11.1755 1.32946 11.2203 1.37434C11.2652 1.41921 11.2948 1.47704 11.3051 1.53967L11.4897 2.67017C11.5016 2.74296 11.5396 2.80891 11.5967 2.85564L12.4818 3.58104C12.5309 3.62122 12.566 3.67577 12.5824 3.737C12.5988 3.79823 12.5956 3.86306 12.5732 3.92237L12.1687 4.99418C12.1427 5.06314 12.1427 5.13921 12.1687 5.20817L12.5732 6.27998C12.6191 6.40156 12.5823 6.5389 12.4818 6.62128Z" fill="#F3D332"/>
<path d="M7.50129 8.67421C9.46736 8.67421 11.0612 7.07444 11.0612 5.10102C11.0612 3.1276 9.46736 1.52783 7.50129 1.52783C5.53522 1.52783 3.94141 3.1276 3.94141 5.10102C3.94141 7.07444 5.53522 8.67421 7.50129 8.67421Z" fill="#F8E837"/>
<path d="M10.0886 7.55487C9.4403 8.24412 8.52078 8.67434 7.50129 8.67434C5.53533 8.67434 3.94141 7.07466 3.94141 5.10112C3.94141 3.8641 4.56795 2.77371 5.51987 2.13232C4.91697 2.77219 4.54734 3.63566 4.54734 4.58607C4.54734 6.55961 6.14126 8.15929 8.10723 8.15929C8.84072 8.15929 9.5224 7.93658 10.0886 7.55487Z" fill="#F3D332"/>
<path d="M7.49805 8.90155C5.40984 8.90155 3.71094 7.19671 3.71094 5.10117C3.71094 3.00562 5.40984 1.30078 7.49805 1.30078C9.58627 1.30078 11.2852 3.00562 11.2852 5.10117C11.2852 7.19671 9.58627 8.90155 7.49805 8.90155ZM7.49805 1.7552C5.66042 1.7552 4.16539 3.25617 4.16539 5.10114C4.16539 6.9461 5.66042 8.44706 7.49805 8.44706C9.33568 8.44706 10.8307 6.9461 10.8307 5.10114C10.8307 3.25617 9.33568 1.7552 7.49805 1.7552Z" fill="#FAF063"/>
<path d="M8.09133 6.80526C8.09133 7.05624 7.88785 7.25972 7.63688 7.25972C7.3859 7.25972 7.18242 7.05624 7.18242 6.80526V3.89231H6.75523C6.50426 3.89231 6.30078 3.68883 6.30078 3.43785C6.30078 3.18687 6.50426 2.9834 6.75523 2.9834H7.63688C7.88785 2.9834 8.09133 3.18687 8.09133 3.43785V6.80526Z" fill="#F3D332"/>
</g>
<defs>
<clipPath id="clip0_5152_1899">
<rect width="15" height="15" fill="white"/>
</clipPath>
</defs>
</svg>
