<svg width="12" height="13" viewBox="0 0 12 13" fill="none" xmlns="http://www.w3.org/2000/svg">
<path d="M2.66656 2.6V0.65C2.66656 0.291018 2.96505 0 3.33324 0H11.3333C11.7015 0 12 0.291018 12 0.65V9.75C12 10.109 11.7015 10.4 11.3333 10.4H9.3333V12.3494C9.3333 12.7087 9.03337 13 8.6621 13H0.671114C0.300397 13 0 12.711 0 12.3494L0.00173332 3.25057C0.00179999 2.89127 0.301763 2.6 0.672954 2.6H2.66656ZM1.33496 3.9L1.33347 11.7H7.99996V3.9H1.33496ZM3.99991 2.6H9.3333V9.1H10.6667V1.3H3.99991V2.6Z" fill="#141414"/>
</svg>
