<svg width="10" height="13" viewBox="0 0 10 13" fill="none" xmlns="http://www.w3.org/2000/svg">
<path fill-rule="evenodd" clip-rule="evenodd" d="M3.04882 12.9999C3.02343 12.9999 2.97265 12.9745 2.94726 12.9491L2.10937 12.162L0.966796 12.4413C0.916015 12.4413 0.865234 12.4159 0.839844 12.3905C0.789062 12.3398 0.789062 12.289 0.789062 12.2382L1.93164 8.02335C1.93164 7.97257 1.98242 7.92179 2.05859 7.92179C2.10937 7.8964 2.16015 7.94718 2.21093 7.99796C2.26171 8.07414 2.33789 8.15031 2.43945 8.20109C2.5664 8.30265 2.74414 8.32804 2.89648 8.27726C2.97265 8.25187 3.02343 8.27726 3.07421 8.35343C3.15038 8.48038 3.27734 8.58195 3.45507 8.63273C3.60741 8.68351 3.78515 8.65812 3.9121 8.58195C3.98827 8.53117 4.06444 8.55656 4.11523 8.60734C4.14062 8.63273 4.16601 8.65812 4.21679 8.68351C4.26757 8.7089 4.29296 8.78507 4.29296 8.86124L3.20117 12.8983C3.17578 12.9491 3.15038 12.9745 3.0996 12.9999H3.04882ZM6.04491 12.9999H5.99413C5.94335 12.9745 5.91796 12.9491 5.89257 12.8983L4.80077 8.86124C4.80077 8.78507 4.82616 8.7089 4.87694 8.68351C4.92772 8.65812 4.95311 8.63273 4.9785 8.60734C5.02929 8.55656 5.10546 8.53117 5.18163 8.58195C5.30858 8.65812 5.48632 8.68351 5.63866 8.63273C5.81639 8.58195 5.94335 8.48038 6.01952 8.35343C6.0703 8.27726 6.12108 8.25187 6.19725 8.27726C6.3496 8.32804 6.52733 8.30265 6.65428 8.20109C6.75584 8.15031 6.83202 8.07414 6.8828 7.99796C6.93358 7.94718 6.98436 7.92179 7.03514 7.92179C7.11131 7.92179 7.16209 7.97257 7.16209 8.02335L8.30467 12.2382V12.289C8.30467 12.3651 8.2285 12.4413 8.15232 12.4413H8.12693L6.98436 12.162L6.14647 12.9491C6.12108 12.9745 6.0703 12.9999 6.04491 12.9999Z" fill="#FF4755"/>
<path fill-rule="evenodd" clip-rule="evenodd" d="M4.54491 9.08982C4.34179 9.08982 4.13866 9.01365 3.96093 8.8867C3.78319 8.96287 3.58007 8.98826 3.37694 8.93748C3.17382 8.86131 2.99609 8.75974 2.86913 8.58201C2.66601 8.6074 2.46288 8.58201 2.28515 8.48045C2.08203 8.37889 1.95507 8.20115 1.8789 8.02342C1.67578 7.99803 1.47265 7.89646 1.3457 7.74412C1.19336 7.59178 1.09179 7.41404 1.0664 7.21092C0.863279 7.13475 0.710936 6.9824 0.609373 6.80467C0.507811 6.62694 0.45703 6.42381 0.482421 6.22069C0.330077 6.09373 0.203124 5.916 0.152343 5.71288C0.101562 5.50975 0.126953 5.30663 0.203124 5.1035C0.0761717 4.95116 0 4.74803 0 4.54491C0 4.34179 0.0761717 4.13866 0.203124 3.96093C0.126953 3.78319 0.101562 3.58007 0.152343 3.37694C0.203124 3.17382 0.330077 2.99609 0.482421 2.86913C0.45703 2.66601 0.507811 2.46288 0.609373 2.25976C0.710936 2.08203 0.863279 1.95507 1.0664 1.8789C1.09179 1.67578 1.19336 1.47265 1.3457 1.32031C1.47265 1.19336 1.67578 1.09179 1.8789 1.0664C1.95507 0.863279 2.08203 0.710936 2.28515 0.609373C2.46288 0.507811 2.66601 0.45703 2.86913 0.482421C2.99609 0.330077 3.17382 0.203124 3.37694 0.152343C3.58007 0.101562 3.78319 0.126953 3.96093 0.203124C4.13866 0.0761717 4.34179 0 4.54491 0C4.74803 0 4.95116 0.0761717 5.12889 0.203124C5.30663 0.126953 5.50975 0.101562 5.71288 0.152343C5.916 0.203124 6.09373 0.330077 6.22069 0.482421C6.42381 0.45703 6.62694 0.507811 6.80467 0.609373C7.00779 0.710936 7.13475 0.863279 7.21092 1.0664C7.41404 1.09179 7.61717 1.19336 7.74412 1.32031C7.89646 1.47265 7.99803 1.67578 8.02342 1.8789C8.22654 1.95507 8.37889 2.08203 8.48045 2.25976C8.58201 2.46288 8.63279 2.66601 8.6074 2.86913C8.75974 2.99609 8.8867 3.17382 8.93748 3.37694C8.98826 3.58007 8.96287 3.78319 8.8867 3.96093C9.01365 4.13866 9.08982 4.34179 9.08982 4.54491C9.08982 4.74803 9.01365 4.95116 8.8867 5.1035C8.96287 5.30663 8.98826 5.50975 8.93748 5.71288C8.8867 5.916 8.75974 6.09373 8.6074 6.22069C8.63279 6.42381 8.58201 6.62694 8.48045 6.80467C8.37889 6.9824 8.22654 7.13475 8.02342 7.21092C7.99803 7.41404 7.89646 7.59178 7.74412 7.74412C7.61717 7.89646 7.41404 7.99803 7.21092 8.02342C7.13475 8.20115 7.00779 8.37889 6.80467 8.48045C6.62694 8.58201 6.42381 8.6074 6.22069 8.58201C6.09373 8.75974 5.916 8.86131 5.71288 8.93748C5.50975 8.98826 5.30663 8.96287 5.12889 8.8867C4.95116 9.01365 4.74803 9.08982 4.54491 9.08982Z" fill="#FFEB98"/>
<path fill-rule="evenodd" clip-rule="evenodd" d="M4.54296 7.541C2.89257 7.541 1.54688 6.1953 1.54688 4.54491C1.54688 2.89453 2.89257 1.52344 4.54296 1.52344C6.19335 1.52344 7.53905 2.89453 7.53905 4.54491C7.53905 6.1953 6.19335 7.541 4.54296 7.541Z" fill="#FFC362"/>
<g style="mix-blend-mode:color-dodge">
<path d="M5.34 4.4C5.60933 4.51467 5.744 4.73867 5.744 5.072C5.744 5.336 5.66133 5.54 5.496 5.684C5.33067 5.828 5.12267 5.9 4.872 5.9C4.62933 5.9 4.42267 5.836 4.252 5.708C4.084 5.58 4 5.392 4 5.144C4 5.112 4.016 5.096 4.048 5.096H4.4C4.42667 5.096 4.44267 5.11067 4.448 5.14C4.464 5.24933 4.50933 5.336 4.584 5.4C4.66133 5.464 4.75733 5.496 4.872 5.496C5 5.496 5.10267 5.456 5.18 5.376C5.26 5.296 5.3 5.19067 5.3 5.06C5.3 4.92933 5.26 4.82533 5.18 4.748C5.1 4.668 4.99333 4.628 4.86 4.628H4.84C4.808 4.628 4.792 4.612 4.792 4.58V4.252C4.792 4.22 4.808 4.204 4.84 4.204H4.86C4.98 4.204 5.076 4.168 5.148 4.096C5.22267 4.02133 5.26 3.92533 5.26 3.808C5.26 3.68533 5.224 3.58667 5.152 3.512C5.08267 3.43733 4.98933 3.4 4.872 3.4C4.768 3.4 4.68 3.43067 4.608 3.492C4.536 3.55333 4.49333 3.63333 4.48 3.732C4.47467 3.76133 4.45867 3.776 4.432 3.776H4.084C4.05467 3.776 4.04 3.76133 4.04 3.732C4.04 3.52933 4.12267 3.35733 4.288 3.216C4.45333 3.072 4.648 3 4.872 3C5.11467 3 5.31333 3.07467 5.468 3.224C5.62267 3.37067 5.7 3.56133 5.7 3.796C5.7 4.084 5.58 4.28533 5.34 4.4Z" fill="#FF8C00"/>
</g>
</svg>
