<svg width="16" height="16" viewBox="0 0 16 16" fill="none" xmlns="http://www.w3.org/2000/svg">
<path d="M12.1463 11.1166L15.2691 14.2394L14.2379 15.2706L11.1151 12.1478C9.99227 13.0461 8.56828 13.5835 7.01953 13.5835C3.39703 13.5835 0.457031 10.6435 0.457031 7.021C0.457031 3.3985 3.39703 0.458496 7.01953 0.458496C10.642 0.458496 13.582 3.3985 13.582 7.021C13.582 8.56975 13.0446 9.99374 12.1463 11.1166ZM10.6834 10.5755C11.575 9.65664 12.1237 8.4032 12.1237 7.021C12.1237 4.20094 9.83958 1.91683 7.01953 1.91683C4.19948 1.91683 1.91536 4.20094 1.91536 7.021C1.91536 9.84105 4.19948 12.1252 7.01953 12.1252C8.40174 12.1252 9.65518 11.5765 10.5741 10.6848L10.6834 10.5755Z" fill="#979A9B"/>
</svg>
